<svg xmlns="http://www.w3.org/2000/svg" width="83" height="75" viewBox="0 0 83 75"><g transform="translate(4 7)" fill="none"><path d="M25.911,2.081a2,2,0,0,1,3.179,0L52.545,32.786A2,2,0,0,1,50.955,36H4.045a2,2,0,0,1-1.589-3.214Z" stroke="none"/><path d="M 27.5 3.294670104980469 L 4.044548034667969 33.99999237060547 C 4.044548034667969 33.99999237060547 4.044548034667969 33.99999618530273 4.044540405273438 34 L 50.9554443359375 34 C 50.9554443359375 33.99999618530273 50.95544815063477 33.99999237060547 50.95545959472656 34 L 27.5 3.294670104980469 M 27.5 1.294673919677734 C 28.09455299377441 1.294673919677734 28.6891040802002 1.556644439697266 29.08934020996094 2.080589294433594 L 52.5447998046875 32.78591918945312 C 53.55020141601562 34.10208129882812 52.61169052124023 36 50.95545959472656 36 L 4.044540405273438 36 C 2.388301849365234 36 1.449798583984375 34.10208129882812 2.4552001953125 32.78591918945312 L 25.91065979003906 2.080589294433594 C 26.3108959197998 1.556644439697266 26.90544700622559 1.294673919677734 27.5 1.294673919677734 Z" stroke="none" fill="#2e3192"/></g><g transform="translate(24 14)" fill="none"><path d="M25.911,2.081a2,2,0,0,1,3.179,0L52.545,32.786A2,2,0,0,1,50.955,36H4.045a2,2,0,0,1-1.589-3.214Z" stroke="none"/><path d="M 27.5 3.294670104980469 L 4.044548034667969 33.99999237060547 C 4.044548034667969 33.99999237060547 4.044548034667969 33.99999618530273 4.044540405273438 34 L 50.9554443359375 34 C 50.9554443359375 33.99999618530273 50.95544815063477 33.99999237060547 50.95545959472656 34 L 27.5 3.294670104980469 M 27.5 1.294673919677734 C 28.09455299377441 1.294673919677734 28.6891040802002 1.556644439697266 29.08934020996094 2.080589294433594 L 52.5447998046875 32.78591918945312 C 53.55020141601562 34.10208129882812 52.61169052124023 36 50.95545959472656 36 L 4.044540405273438 36 C 2.388301849365234 36 1.449798583984375 34.10208129882812 2.4552001953125 32.78591918945312 L 25.91065979003906 2.080589294433594 C 26.3108959197998 1.556644439697266 26.90544700622559 1.294673919677734 27.5 1.294673919677734 Z" stroke="none" fill="#2e3192"/></g><g transform="translate(24)" fill="none"><path d="M25.911,2.081a2,2,0,0,1,3.179,0L52.545,32.786A2,2,0,0,1,50.955,36H4.045a2,2,0,0,1-1.589-3.214Z" stroke="none"/><path d="M 27.5 3.294670104980469 L 4.044548034667969 33.99999237060547 C 4.044548034667969 33.99999237060547 4.044548034667969 33.99999618530273 4.044540405273438 34 L 50.9554443359375 34 C 50.9554443359375 33.99999618530273 50.95544815063477 33.99999237060547 50.95545959472656 34 L 27.5 3.294670104980469 M 27.5 1.294673919677734 C 28.09455299377441 1.294673919677734 28.6891040802002 1.556644439697266 29.08934020996094 2.080589294433594 L 52.5447998046875 32.78591918945312 C 53.55020141601562 34.10208129882812 52.61169052124023 36 50.95545959472656 36 L 4.044540405273438 36 C 2.388301849365234 36 1.449798583984375 34.10208129882812 2.4552001953125 32.78591918945312 L 25.91065979003906 2.080589294433594 C 26.3108959197998 1.556644439697266 26.90544700622559 1.294673919677734 27.5 1.294673919677734 Z" stroke="none" fill="#2e3192"/></g><text transform="translate(0 72)" fill="#2e3192" font-size="13" font-family="Raleway-Medium, Raleway" font-weight="500"><tspan x="0" y="0">BACK TO TOP</tspan></text></svg>